<?xml version="1.0" standalone="no"?>
<!DOCTYPE svg PUBLIC "-//W3C//DTD SVG 20010904//EN"
 "http://www.w3.org/TR/2001/REC-SVG-20010904/DTD/svg10.dtd">
<svg version="1.0" xmlns="http://www.w3.org/2000/svg"
 width="527.000000pt" height="718.000000pt" viewBox="0 0 527.000000 718.000000"
 preserveAspectRatio="xMidYMid meet">
<metadata>
Created by potrace 1.13, written by Peter Selinger 2001-2015
</metadata>
<g transform="translate(0.000000,718.000000) scale(0.100000,-0.100000)"
fill="#000000" stroke="none">
<path d="M2355 6719 c-57 -11 -123 -36 -170 -63 -48 -29 -126 -109 -150 -156
l-18 -34 33 28 c35 29 109 69 150 80 14 4 1 -6 -27 -23 -80 -47 -165 -136
-202 -211 -29 -60 -58 -184 -49 -211 2 -7 19 18 37 55 36 75 113 159 186 205
27 17 50 29 52 27 3 -2 -14 -28 -37 -57 -134 -176 -166 -383 -84 -551 24 -52
33 -48 22 10 -16 82 7 191 63 303 42 84 148 214 211 260 32 24 32 21 -13 -71
-44 -91 -87 -239 -100 -347 -27 -217 37 -396 181 -504 65 -49 79 -50 41 -1
-41 51 -77 127 -90 190 -27 131 -5 330 53 485 25 64 63 147 69 147 1 0 2 -114
2 -253 1 -146 6 -283 13 -327 19 -117 54 -270 63 -270 11 0 46 160 64 295 10
76 16 198 17 335 l0 215 35 -75 c19 -41 48 -126 64 -189 58 -228 31 -433 -76
-560 -60 -70 41 -6 113 73 99 107 138 273 112 461 -14 95 -64 253 -110 348
l-39 79 42 -35 c173 -141 297 -396 269 -555 -6 -31 -9 -59 -7 -60 6 -7 43 72
59 127 43 144 -3 329 -115 472 -23 28 -39 52 -37 55 9 8 104 -60 154 -111 29
-30 67 -84 85 -120 17 -36 34 -65 36 -65 2 0 2 24 -2 53 -19 166 -102 290
-250 379 -27 16 -39 26 -25 22 40 -11 115 -51 149 -79 39 -33 39 -26 2 28 -35
52 -108 120 -151 142 -101 52 -134 58 -365 60 -121 1 -238 -1 -260 -6z"/>
<path d="M1124 5376 c-144 -27 -255 -80 -346 -164 -66 -62 -75 -83 -20 -49
114 71 253 102 452 101 356 -2 759 -147 1120 -404 137 -97 134 -89 64 -163
-144 -152 -241 -288 -321 -452 -29 -60 -53 -116 -53 -122 0 -10 23 -13 84 -13
l85 0 41 78 c62 116 164 254 268 361 l92 96 90 -94 c99 -104 195 -234 265
-358 l47 -83 85 0 c100 0 99 -11 17 155 -65 132 -154 258 -280 399 l-93 105
87 63 c240 175 479 296 726 368 177 51 267 64 441 64 192 0 271 -15 396 -76
98 -48 102 -39 17 37 -63 55 -187 118 -278 140 -92 23 -297 30 -416 16 -331
-41 -721 -207 -1021 -437 l-82 -63 -52 40 c-95 76 -290 197 -412 257 -195 96
-353 151 -537 187 -115 23 -373 29 -466 11z"/>
<path d="M679 3786 c-62 -17 -133 -60 -163 -99 -118 -154 -91 -375 57 -474 30
-20 115 -54 222 -88 203 -66 239 -90 259 -169 24 -93 -10 -177 -91 -227 -30
-19 -55 -24 -128 -27 -86 -4 -93 -3 -155 30 -80 41 -123 100 -141 189 l-12 61
-61 -7 c-34 -4 -62 -8 -64 -10 -2 -1 1 -29 7 -61 36 -224 176 -344 401 -344
188 0 320 90 366 248 23 77 16 203 -14 263 -51 103 -128 152 -342 214 -206 60
-245 92 -245 199 0 53 4 68 27 98 43 56 88 73 193 73 95 0 132 -12 176 -58 28
-29 59 -95 59 -129 0 -36 11 -41 76 -32 l57 7 -6 53 c-6 62 -41 144 -81 192
-79 92 -256 136 -397 98z"/>
<path d="M1691 3608 c-30 -95 -112 -357 -183 -583 -71 -225 -131 -418 -134
-427 -5 -16 3 -18 64 -18 l70 0 25 83 c14 45 38 126 53 180 l28 97 207 0 c207
0 208 0 214 -22 4 -13 29 -94 57 -180 l49 -158 75 0 c41 0 74 1 74 3 0 4 -387
1161 -395 1180 -6 14 -20 17 -79 17 l-72 0 -53 -172z m158 -83 c16 -55 52
-175 80 -267 28 -92 51 -172 51 -178 0 -6 -55 -10 -160 -10 -108 0 -160 4
-160 11 0 6 29 106 64 222 36 117 70 241 78 275 7 35 14 60 15 55 2 -4 16 -53
32 -108z"/>
<path d="M2500 3397 c0 -387 8 -511 37 -602 50 -156 169 -235 354 -235 121 0
199 29 270 99 49 49 61 69 85 142 l28 84 4 448 3 447 -65 0 -64 0 -5 -427 c-3
-349 -7 -438 -20 -480 -35 -120 -91 -164 -219 -171 -97 -6 -152 13 -202 68
-68 76 -75 135 -76 653 l0 357 -65 0 -65 0 0 -383z"/>
<path d="M3590 3180 l0 -601 253 3 253 3 66 33 c80 39 128 91 174 187 59 124
69 178 69 385 0 166 -2 193 -23 260 -48 153 -118 247 -221 297 l-56 28 -257 3
-258 3 0 -601z m498 435 c136 -56 212 -273 182 -525 -22 -191 -70 -289 -166
-336 -53 -26 -67 -28 -215 -32 l-159 -5 0 463 0 463 158 -5 c118 -4 168 -10
200 -23z"/>
<path d="M4720 3180 l0 -600 70 0 70 0 0 600 0 600 -70 0 -70 0 0 -600z"/>
<path d="M963 1405 c-67 -29 -94 -126 -53 -192 22 -37 47 -51 143 -82 100 -33
125 -85 68 -142 -58 -58 -168 -27 -189 54 -7 26 -13 31 -33 29 -31 -5 -29 -1
-19 -47 18 -78 78 -125 160 -125 92 0 160 63 160 148 0 85 -37 118 -188 167
-75 24 -95 73 -47 120 18 19 35 25 65 25 54 0 79 -14 96 -56 12 -27 20 -35 37
-32 18 2 22 9 20 33 -7 87 -125 141 -220 100z"/>
<path d="M1415 1408 c-87 -48 -109 -153 -45 -217 17 -16 57 -37 98 -50 93 -29
122 -52 122 -97 0 -111 -178 -114 -211 -4 -10 34 -15 39 -33 34 -29 -9 -29 -9
-22 -48 31 -166 304 -166 317 -1 7 99 -25 138 -141 174 -89 28 -110 44 -110
85 0 37 7 49 37 65 41 21 92 14 124 -18 16 -16 29 -37 29 -45 0 -10 9 -16 25
-16 54 0 19 97 -47 131 -41 21 -112 25 -143 7z"/>
<path d="M1884 1400 c-78 -39 -114 -117 -114 -245 0 -74 3 -90 33 -146 25 -50
41 -67 76 -86 171 -90 321 91 270 326 -29 134 -154 206 -265 151z m144 -60
c48 -30 72 -88 72 -180 0 -128 -52 -200 -144 -200 -50 0 -109 55 -126 120 -14
53 -7 157 14 197 40 78 117 104 184 63z"/>
<path d="M2394 1401 c-74 -33 -114 -117 -114 -236 0 -163 71 -265 185 -265 45
0 94 20 122 51 28 30 56 97 49 115 -8 20 -56 18 -56 -1 0 -29 -30 -75 -60 -90
-63 -32 -133 -6 -165 61 -28 59 -26 195 3 251 50 96 173 98 212 3 10 -25 17
-29 34 -24 11 4 23 8 25 10 9 8 -11 55 -36 85 -50 59 -124 74 -199 40z"/>
<path d="M4134 1400 c-78 -39 -114 -117 -114 -245 0 -74 3 -90 33 -146 25 -50
41 -67 76 -86 171 -90 321 91 270 326 -29 134 -154 206 -265 151z m144 -60
c48 -30 72 -88 72 -180 0 -128 -52 -200 -144 -200 -50 0 -109 55 -126 120 -14
53 -7 157 14 197 40 78 117 104 184 63z"/>
<path d="M555 1398 c-2 -7 -37 -120 -78 -250 l-74 -238 28 0 c27 0 30 5 50 70
l21 70 88 0 89 0 22 -70 c21 -65 25 -70 51 -70 15 0 28 3 28 7 0 5 -36 117
-81 250 l-81 243 -29 0 c-16 0 -32 -6 -34 -12z m69 -167 c16 -52 30 -101 33
-108 4 -10 -11 -13 -67 -13 -60 0 -71 3 -66 15 3 8 18 59 33 114 15 55 31 97
34 93 3 -4 18 -49 33 -101z"/>
<path d="M2775 1160 l0 -250 28 0 27 0 0 250 0 250 -27 0 -28 0 0 -250z"/>
<path d="M3050 1248 c-28 -90 -64 -203 -79 -251 l-29 -88 31 3 c28 3 31 8 50
71 l20 68 90 -3 90 -3 20 -67 c19 -65 21 -68 51 -68 l32 0 -58 173 c-114 345
-107 327 -139 327 -28 0 -29 -3 -79 -162z m115 -18 c15 -52 30 -101 32 -107 4
-10 -13 -13 -66 -13 -39 0 -71 1 -71 3 0 1 14 45 30 97 16 52 30 104 30 115 0
37 18 0 45 -95z"/>
<path d="M3370 1380 l0 -30 65 0 65 0 0 -220 0 -220 30 0 30 0 0 220 0 219 67
3 c65 3 67 4 68 31 l2 27 -164 0 -163 0 0 -30z"/>
<path d="M3820 1160 l0 -250 25 0 25 0 0 250 0 250 -25 0 -25 0 0 -250z"/>
<path d="M4530 1161 l0 -251 30 0 31 0 -3 190 c-2 105 -1 190 2 190 3 0 51
-86 108 -190 98 -180 105 -190 133 -190 l29 0 0 250 0 250 -25 0 -25 0 -2
-196 -3 -197 -106 194 c-100 185 -107 194 -137 197 l-32 3 0 -250z"/>
</g>
</svg>
